<?xml version="1.0" encoding="utf-8"?>
<!-- Generator: Adobe Illustrator 26.2.1, SVG Export Plug-In . SVG Version: 6.00 Build 0)  -->
<svg version="1.1" id="Layer_1" xmlns="http://www.w3.org/2000/svg" xmlns:xlink="http://www.w3.org/1999/xlink" x="0px" y="0px"
	 viewBox="0 0 512 512" style="enable-background:new 0 0 512 512;" xml:space="preserve">
<style type="text/css">
	.st0{fill:#FFFFFF;}
</style>
<path class="st0" d="M256,405.3c-8.5,0-16.6-3.3-22.6-9.4L120.7,283.3l15.1-15.1l112.7,112.7c4,4,11.1,4,15.1,0l112.7-112.7
	l15.1,15.1L278.6,396C272.6,402,264.5,405.3,256,405.3L256,405.3z M266,251.8l125.2-125.2l-15.1-15.1L256,231.7L135.8,111.5
	l-15.1,15.1L246,251.8c2.8,2.8,6.4,4.2,10,4.2S263.3,254.6,266,251.8L266,251.8z"/>
</svg>
